#!OML:ASF I:\Actors\actors\Patient Classification 2\Patient 1\Session 1\actor1.ASF
:FULLY-SPECIFIED
:DEGREES
632
root -0.347486 18.7061 5.43422 1.30979 2.43498 -1.86172
lowerback 19.0389 0.0829952 7.6115
upperback -0.556143 2.07667 2.17132
thorax -11.1814 0.610194 -2.50857
lowerneck -8.09398 -2.38927 2.47682
upperneck -4.39748 -3.48513 -7.02604
head -0.179292 -1.82072 -2.74051
rclavicle 1.92821e-014 -1.03368e-014
rhumerus 9.4164 5.86721 -28.8148
rradius 136.962
rwrist -79.4926
rhand 8.53695 -62.0276
rfingers 7.12502
rthumb 33.7374 -88.8693
lclavicle 1.92821e-014 -1.03368e-014
lhumerus -47.5585 -2.14269 88.5249
lradius 54.7964
lwrist 2.60062
lhand -9.57873 -26.872
lfingers 7.12502
lthumb 16.3893 2.45558
rfemur 0 0 0
rtibia 0
rfoot 0 0
rtoes 0
lfemur -9.87094 -0.0993531 -12.9078
ltibia 26.6191
lfoot -18.8383 5.29253
ltoes -56.3991
633
root -0.346458 18.7026 5.45197 1.16897 2.63537 -1.77134
lowerback 18.9422 0.107178 7.59702
upperback -0.70858 2.09586 2.0794
thorax -11.2942 0.609312 -2.60586
lowerneck -8.21158 -2.35868 2.41232
upperneck -3.98266 -3.41638 -7.06763
head -0.0232034 -1.79393 -2.74796
rclavicle -4.47266e-015 -6.36111e-015
rhumerus 8.54831 6.1421 -28.9125
rradius 136.719
rwrist -79.2056
rhand 8.54027 -62.1368
rfingers 7.12502
rthumb 33.7406 -88.9778
lclavicle -4.47266e-015 -6.36111e-015
lhumerus -47.7681 -2.19835 88.5595
lradius 55.1581
lwrist 2.08736
lhand -9.33064 -25.024
lfingers 7.12502
lthumb 16.6281 4.28375
rfemur 0 0 0
rtibia 0
rfoot 0 0
rtoes 0
lfemur -9.68267 -0.160062 -13.0057
ltibia 26.601
lfoot -18.8503 5.14757
ltoes -56.422
634
root -0.34463 18.6989 5.47014 1.01316 2.85767 -1.71845
lowerback 18.721 0.137651 7.53742
upperback -0.777043 2.10272 2.05539
thorax -11.2455 0.616022 -2.59622
lowerneck -8.26154 -2.31615 2.42116
upperneck -3.71289 -3.34643 -7.22044
head 0.0725831 -1.76519 -2.80384
rclavicle 5.76476e-015 -3.02153e-014
rhumerus 7.82168 6.28559 -28.9607
rradius 136.431
rwrist -79.1267
rhand 8.61838 -62.2585
rfingers 7.12502
rthumb 33.8148 -89.0832
lclavicle 5.76476e-015 -3.02153e-014
lhumerus -47.851 -2.15402 88.6125
lradius 55.2597
lwrist 1.87782
lhand -9.12691 -24.3868
lfingers 7.12502
lthumb 16.8243 4.90432
rfemur 0 0 0
rtibia 0
rfoot 0 0
rtoes 0
lfemur -9.47697 -0.249303 -13.068
ltibia 26.5738
lfoot -18.846 5.01624
ltoes -56.4284
635
root -0.343956 18.6957 5.48879 0.885465 3.12293 -1.64354
lowerback 18.4837 0.157072 7.44102
upperback -0.862721 2.08604 2.02537
thorax -11.2099 0.612818 -2.56571
lowerneck -8.30715 -2.26744 2.43944
upperneck -3.42326 -3.2668 -7.31205
head 0.175535 -1.73167 -2.8409
rclavicle -3.47873e-015 1.74931e-014
rhumerus 7.09789 6.38354 -28.9898
rradius 136.131
rwrist -79.1284
rhand 8.79865 -62.4591
rfingers 7.12502
rthumb 33.986 -89.2459
lclavicle -3.47873e-015 1.74931e-014
lhumerus -47.9941 -2.07211 88.6285
lradius 55.2841
lwrist 1.80202
lhand -9.03483 -24.398
lfingers 7.12502
lthumb 16.9129 4.88554
rfemur 0 0 0
rtibia 0
rfoot 0 0
rtoes 0
lfemur -9.31258 -0.355419 -13.1479
ltibia 26.5504
lfoot -18.8311 4.88715
ltoes -56.461
636
root -0.344631 18.6921 5.50715 0.774142 3.41264 -1.55351
lowerback 18.2492 0.164544 7.34425
upperback -0.955559 2.05251 1.97657
thorax -11.1846 0.600507 -2.55133
lowerneck -8.45714 -2.23052 2.24239
upperneck -3.01361 -3.17594 -7.11991
head 0.341998 -1.69141 -2.74574
rclavicle 1.74931e-014 -1.35174e-014
rhumerus 6.33582 6.58713 -29.0695
rradius 135.792
rwrist -78.8949
rhand 8.81536 -62.3935
rfingers 7.12502
rthumb 34.0019 -89.1768
lclavicle 1.74931e-014 -1.35174e-014
lhumerus -48.0943 -1.92031 88.6054
lradius 55.2342
lwrist 1.6715
lhand -9.01307 -24.4668
lfingers 7.12502
lthumb 16.9339 4.81496
rfemur 0 0 0
rtibia 0
rfoot 0 0
rtoes 0
lfemur -9.17197 -0.464172 -13.2374
ltibia 26.5342
lfoot -18.8285 4.72294
ltoes -56.4519
637
root -0.344778 18.6878 5.52426 0.662961 3.71547 -1.4698
lowerback 18.0478 0.16591 7.26993
upperback -1.05525 2.01891 1.91963
thorax -11.1849 0.585374 -2.55936
lowerneck -8.74068 -2.18729 1.9894
upperneck -2.44274 -3.06343 -6.88219
head 0.584708 -1.64414 -2.63049
rclavicle -9.83984e-015 -1.59028e-014
rhumerus 5.5557 6.8201 -29.2569
rradius 135.386
rwrist -78.554
rhand 8.82119 -62.3179
rfingers 7.12502
rthumb 34.0074 -89.1
lclavicle -9.83984e-015 -1.59028e-014
lhumerus -48.1941 -1.84706 88.6113
lradius 55.1757
lwrist 1.57967
lhand -9.12733 -24.4961
lfingers 7.12502
lthumb 16.8239 4.79504
rfemur 0 0 0
rtibia 0
rfoot 0 0
rtoes 0
lfemur -9.03598 -0.557723 -13.321
ltibia 26.5187
lfoot -18.7958 4.52462
ltoes -56.4235
638
root -0.344374 18.683 5.54364 0.50936 3.98826 -1.42258
lowerback 17.8626 0.179376 7.20648
upperback -1.14991 2.00654 1.87493
thorax -11.1867 0.580029 -2.56602
lowerneck -8.86035 -2.12093 2.06173
upperneck -2.03855 -2.95899 -6.96686
head 0.738504 -1.60206 -2.67815
rclavicle 1.20265e-014 -2.8625e-014
rhumerus 4.78211 6.97957 -29.4597
rradius 134.982
rwrist -78.2626
rhand 8.92989 -62.4465
rfingers 7.12502
rthumb 34.1107 -89.2056
lclavicle 1.20265e-014 -2.8625e-014
lhumerus -48.3411 -1.83723 88.629
lradius 55.0189
lwrist 1.75039
lhand -9.37898 -25.0489
lfingers 7.12502
lthumb 16.5816 4.26272
rfemur 0 0 0
rtibia 0
rfoot 0 0
rtoes 0
lfemur -8.84679 -0.612108 -13.3627
ltibia 26.5055
lfoot -18.769 4.30149
ltoes -56.4294
639
root -0.343683 18.6779 5.56744 0.306747 4.16889 -1.46154
lowerback 17.6667 0.216616 7.19535
upperback -1.21824 2.03896 1.87105
thorax -11.1483 0.596128 -2.5686
lowerneck -8.9264 -2.04241 2.26042
upperneck -1.72124 -2.85358 -7.22414
head 0.853167 -1.56067 -2.80513
rclavicle 1.78906e-015 -1.03368e-014
rhumerus 4.05584 7.11947 -29.5885
rradius 134.595
rwrist -77.9997
rhand 8.97401 -62.5394
rfingers 7.12502
rthumb 34.1526 -89.2891
lclavicle 1.78906e-015 -1.03368e-014
lhumerus -48.4654 -1.70685 88.5951
lradius 54.5475
lwrist 2.25351
lhand -9.63897 -26.8927
lfingers 7.12502
lthumb 16.3313 2.43969
rfemur 0 0 0
rtibia 0
rfoot 0 0
rtoes 0
lfemur -8.58051 -0.653181 -13.3127
ltibia 26.4924
lfoot -18.8153 4.12416
ltoes -56.4441
